<svg width="95" height="16" viewBox="0 0 95 16" fill="none" xmlns="http://www.w3.org/2000/svg">
<g id="Layer_1" clip-path="url(#clip0_10_1476)">
<path id="Vector" d="M8.51478 0L11.1472 5.26725L17.0315 6.11176L12.7741 10.2104L13.7777 16L8.51478 13.2663L3.2519 16L4.25739 10.2104L0 6.11176L5.88431 5.26725L8.51478 0Z" fill="#FACA51"/>
<path id="Vector_2" d="M28.007 0L30.6394 5.26725L36.5237 6.11176L32.2663 10.2104L33.2698 16L28.007 13.2663L22.7441 16L23.7496 10.2104L19.4922 6.11176L25.3765 5.26725L28.007 0Z" fill="#FACA51"/>
<path id="Vector_3" d="M47.499 0L50.1314 5.26725L56.0157 6.11176L51.7584 10.2104L52.7619 16L47.499 13.2663L42.2362 16L43.2416 10.2104L38.9843 6.11176L44.8686 5.26725L47.499 0Z" fill="#FACA51"/>
<path id="Vector_4" d="M66.9912 0L69.6236 5.26725L75.5079 6.11176L71.2505 10.2104L72.2541 16L66.9912 13.2663L61.7283 16L62.7338 10.2104L58.4764 6.11176L64.3607 5.26725L66.9912 0Z" fill="#FACA51"/>
<path id="Vector_5" d="M86.4833 0L89.1157 5.26725L95 6.11176L90.7426 10.2104L91.7462 16L86.4833 13.2663L81.2204 16L82.2259 10.2104L77.9685 6.11176L83.8528 5.26725L86.4833 0Z" fill="#FACA51"/>
</g>
<defs>
<clipPath id="clip0_10_1476">
<rect width="95" height="16" fill="white"/>
</clipPath>
</defs>
</svg>
